<?xml version="1.0" encoding="utf-8"?>
<!-- Generator: Adobe Illustrator 22.1.0, SVG Export Plug-In . SVG Version: 6.00 Build 0)  -->
<svg version="1.1" id="Calque_1" xmlns="http://www.w3.org/2000/svg" xmlns:xlink="http://www.w3.org/1999/xlink" x="0px" y="0px"
	 viewBox="0 0 100 125" style="enable-background:new 0 0 100 125;" xml:space="preserve">
<g>
	<g>
		<path d="M77,27.9c2.5,0,4.5,2,4.5,4.5v35.1c0,2.5-2,4.5-4.5,4.5H23c-2.5,0-4.5-2-4.5-4.5V32.5c0-2.5,2-4.5,4.5-4.5H77 M77,24.9H23
			c-4.1,0-7.5,3.4-7.5,7.5v35.1c0,4.1,3.4,7.5,7.5,7.5h54c4.1,0,7.5-3.4,7.5-7.5V32.5C84.5,28.3,81.1,24.9,77,24.9L77,24.9z"/>
	</g>
	<g>
		<path d="M50,57.8c-0.4,0-0.7-0.1-1-0.4L22.5,33.9c-0.6-0.5-0.7-1.5-0.1-2.1s1.5-0.7,2.1-0.1L50,54.3l25.5-22.6
			c0.6-0.6,1.6-0.5,2.1,0.1c0.6,0.6,0.5,1.6-0.1,2.1L51,57.4C50.7,57.7,50.4,57.8,50,57.8z"/>
	</g>
</g>
</svg>
