<?xml version="1.0" encoding="utf-8"?>
<!-- Generator: Adobe Illustrator 22.1.0, SVG Export Plug-In . SVG Version: 6.00 Build 0)  -->
<svg version="1.1" id="Calque_1" xmlns="http://www.w3.org/2000/svg" xmlns:xlink="http://www.w3.org/1999/xlink" x="0px" y="0px"
	 viewBox="0 0 100 125" style="enable-background:new 0 0 100 125;" xml:space="preserve">
<path d="M55,37.1c0-8.8-7.2-16-16-16c-1.9,0-3.5,1.6-3.5,3.5s1.6,3.5,3.5,3.5c5,0,9,4,9,9c0,1.9,1.6,3.5,3.5,3.5
	C53.5,40.6,55,39.1,55,37.1z"/>
<path d="M93.8,87.5L61.2,54.9c3.9-4.9,6.2-11,6.2-17.7c0-15.7-12.8-28.4-28.4-28.4c-15.7,0-28.4,12.8-28.4,28.4
	c0,15.7,12.8,28.4,28.4,28.4c6.5,0,12.4-2.2,17.2-5.9l32.6,32.6c0.7,0.7,1.6,1,2.5,1c0.9,0,1.8-0.3,2.5-1
	C95.2,91,95.2,88.8,93.8,87.5z M17.6,37.1c0-11.8,9.6-21.5,21.5-21.5c11.8,0,21.5,9.6,21.5,21.5c0,5.8-2.4,11.1-6.2,15
	c-0.1,0.1-0.3,0.2-0.4,0.3c-0.1,0.1-0.1,0.2-0.2,0.3c-3.8,3.6-9,5.9-14.7,5.9C27.2,58.6,17.6,49,17.6,37.1z"/>
</svg>
