<?xml version="1.0" encoding="utf-8"?>
<!-- Generator: Adobe Illustrator 22.1.0, SVG Export Plug-In . SVG Version: 6.00 Build 0)  -->
<svg version="1.1" id="Calque_1" xmlns="http://www.w3.org/2000/svg" xmlns:xlink="http://www.w3.org/1999/xlink" x="0px" y="0px"
	 viewBox="0 0 100 125" style="enable-background:new 0 0 100 125;" xml:space="preserve">
<g>
	<g>
		<path d="M65.5,34.6c0-8.6-6.9-15.5-15.5-15.5S34.5,26,34.5,34.6C34.5,43.1,41.4,50,50,50S65.5,43.1,65.5,34.6z M38.5,34.6
			c0-6.3,5.2-11.5,11.5-11.5s11.5,5.2,11.5,11.5S56.3,46,50,46S38.5,40.9,38.5,34.6z"/>
	</g>
	<g>
		<path d="M25.3,72c-1.8,4.4,1.4,9.3,6.2,9.3h37.8c4.8,0,8-4.9,6.2-9.3c-4.7-11.2-14.2-18.8-25.1-18.8C39.4,53.2,29.9,60.8,25.3,72z
			 M50.4,57.2c9,0,17.2,6.3,21.4,16.4c0.5,1.2,0,2.2-0.2,2.5c-0.2,0.4-1,1.2-2.3,1.2H31.5c-1.3,0-2-0.8-2.3-1.2
			c-0.2-0.4-0.7-1.3-0.2-2.5C33.2,63.5,41.4,57.2,50.4,57.2z"/>
	</g>
</g>
</svg>
