<?xml version="1.0" encoding="utf-8"?>
<!-- Generator: Adobe Illustrator 22.1.0, SVG Export Plug-In . SVG Version: 6.00 Build 0)  -->
<svg version="1.1" id="Calque_1" xmlns="http://www.w3.org/2000/svg" xmlns:xlink="http://www.w3.org/1999/xlink" x="0px" y="0px"
	 viewBox="0 0 100 125" style="enable-background:new 0 0 100 125;" xml:space="preserve">
<path d="M97.1,20C97.1,20,97.1,20,97.1,20C97.1,20,97.1,20,97.1,20C97.1,20,97.1,20,97.1,20C97.1,20,97.1,20,97.1,20
	C97.1,20,97.1,20,97.1,20C97.1,19.9,97.1,19.9,97.1,20c-0.1-0.1-0.1-0.1-0.1-0.1c0,0,0,0,0,0c0,0,0,0,0,0c0,0,0,0,0,0c0,0,0,0,0,0
	s0,0,0,0c0,0,0,0,0,0L75.4,30.8c0,0,0,0,0,0c0,0,0,0,0,0c0,0,0,0,0,0c0,0,0,0,0,0.1c0,0,0,0,0,0.1c0,0,0,0,0,0c0,0,0,0,0,0.1
	c0,0,0,0,0,0l5.1,3.8c0,0,0.1,0,0.1,0l0,0c0,0,0,0,0,0c0.1,0,0.1,0,0.1-0.1l0.5-0.5l0.8,1.5c0,0,0,0,0,0c0,0,0,0,0,0c0,0,0,0,0,0
	c0,0,0,0,0,0c0,0,0,0,0,0l5.4,2.3c0,0,0.1,0,0.1,0c0,0,0.1,0,0.1,0c0,0,0,0,0,0c0,0,0,0,0,0l9.4-17.8c0,0,0,0,0,0c0,0,0,0,0,0
	C97.2,20.1,97.2,20.1,97.1,20C97.2,20.1,97.2,20.1,97.1,20C97.1,20,97.1,20,97.1,20z M87.5,37.7l-4.9-2.1l13.6-14.3L87.5,37.7z
	 M80.4,32.5C80.4,32.5,80.4,32.5,80.4,32.5C80.4,32.5,80.4,32.5,80.4,32.5c-0.1,0.1-0.1,0.1-0.1,0.1c0,0,0,0,0,0c0,0,0,0,0,0v1.7
	L75.9,31l19.3-9.7L80.4,32.5z M80.8,33.4l0.3,0.5l-0.3,0.3V33.4z M81.5,33.9L81.5,33.9l-0.6-1.2l14.3-10.9L82.2,35.3L81.5,33.9z"/>
<path d="M77,38l-0.7,0.7c-0.1,0.1-0.1,0.2,0,0.3c0,0,0.1,0.1,0.1,0.1c0,0,0.1,0,0.1-0.1l0.7-0.7c0.1-0.1,0.1-0.2,0-0.3
	C77.2,37.9,77.1,37.9,77,38z"/>
<path d="M37.1,19.7c0,0.1,0.1,0.2,0.2,0.2c0,0,0,0,0,0c0.6-0.2,1.3-0.3,2-0.4c0.1,0,0.2-0.1,0.2-0.2c0-0.1-0.1-0.2-0.2-0.2
	c-0.7,0.1-1.3,0.2-2,0.4C37.1,19.5,37,19.6,37.1,19.7z"/>
<path d="M25.2,73.8C25.2,73.8,25.3,73.8,25.2,73.8c0.7-0.3,1.3-0.5,1.9-0.8c0.1,0,0.1-0.2,0.1-0.3s-0.2-0.1-0.3-0.1
	c-0.6,0.3-1.2,0.5-1.9,0.8c-0.1,0-0.2,0.2-0.1,0.3C25,73.8,25.1,73.8,25.2,73.8z"/>
<path d="M61.3,50.3c-0.6,0.3-1.2,0.6-1.8,0.9c-0.1,0-0.1,0.2-0.1,0.3c0,0.1,0.1,0.1,0.2,0.1c0,0,0.1,0,0.1,0c0.6-0.3,1.2-0.6,1.8-1
	c0.1-0.1,0.1-0.2,0.1-0.3C61.6,50.3,61.4,50.3,61.3,50.3z"/>
<path d="M56.3,32.2c0.1,0,0.2-0.1,0.2-0.2c-0.1-0.7-0.2-1.4-0.3-2c0-0.1-0.1-0.2-0.2-0.2c-0.1,0-0.2,0.1-0.2,0.2
	c0.1,0.6,0.2,1.3,0.3,2C56.1,32.1,56.2,32.2,56.3,32.2C56.3,32.2,56.3,32.2,56.3,32.2z"/>
<path d="M49.5,54.9c0,0.1,0.1,0.2,0.2,0.2c0.3-0.1,0.6-0.1,0.9-0.2c-0.1,0.2-0.2,0.3-0.3,0.5c-0.1,0.1,0,0.2,0.1,0.3
	c0,0,0.1,0,0.1,0c0.1,0,0.1,0,0.2-0.1c0.2-0.3,0.4-0.5,0.5-0.8c0.2,0,0.3-0.1,0.5-0.1c0.1,0,0.2-0.1,0.1-0.2c0-0.1-0.1-0.2-0.2-0.1
	c0,0-0.1,0-0.1,0c0.1-0.1,0.2-0.3,0.2-0.4c0.1-0.1,0-0.2-0.1-0.3c-0.1-0.1-0.2,0-0.3,0.1c-0.1,0.2-0.3,0.5-0.4,0.7
	c-0.4,0.1-0.9,0.2-1.3,0.3C49.6,54.7,49.5,54.8,49.5,54.9z"/>
<path d="M23.9,29.9c0.2-0.4,0.3-0.8,0.5-1.1c0.1-0.2,0.2-0.4,0.4-0.6c0.1-0.1,0-0.2-0.1-0.3c-0.1-0.1-0.2,0-0.3,0.1
	c-0.1,0.2-0.3,0.4-0.4,0.7c-0.2,0.4-0.4,0.8-0.5,1.2c0,0.1,0,0.2,0.1,0.3c0,0,0,0,0.1,0C23.8,30,23.8,30,23.9,29.9z"/>
<path d="M29.7,50.2c-0.1,0.1-0.1,0.2,0,0.3c0.4,0.4,0.8,0.7,1.3,1.1c0.1,0.1,0.2,0.2,0.3,0.2c0,0,0.1,0,0.1,0c0.1,0,0.1,0,0.2-0.1
	c0.1-0.1,0-0.2,0-0.3c-0.1-0.1-0.2-0.1-0.3-0.2c-0.4-0.3-0.8-0.7-1.2-1C29.9,50.1,29.8,50.1,29.7,50.2z"/>
<path d="M47.5,19.6c0,0.1,0,0.2,0.1,0.2c0.7,0.2,1.3,0.4,1.8,0.7c0,0,0.1,0,0.1,0c0.1,0,0.1,0,0.2-0.1c0-0.1,0-0.2-0.1-0.3
	c-0.6-0.3-1.2-0.5-1.9-0.7C47.6,19.4,47.5,19.5,47.5,19.6z"/>
<path d="M46,55.3c0,0.1,0.1,0.2,0.2,0.2c0,0,0,0,0,0c0.7,0,1.3-0.1,2-0.2c0.1,0,0.2-0.1,0.2-0.2c0-0.1-0.1-0.2-0.2-0.2
	c-0.7,0.1-1.3,0.2-2,0.2C46.1,55.1,46,55.2,46,55.3z"/>
<path d="M51,21C51,20.9,51,20.9,51,21c-0.1-0.1-0.2,0-0.3,0c-0.1,0.1,0,0.2,0.1,0.3c0.5,0.4,1,0.8,1.5,1.3c0,0,0.1,0.1,0.1,0.1
	c0,0,0.1,0,0.1-0.1c0.1-0.1,0.1-0.2,0-0.3C52.1,21.8,51.5,21.3,51,21z"/>
<path d="M56.4,35.7C56.4,35.7,56.4,35.7,56.4,35.7c0.1,0,0.2-0.1,0.2-0.2v-0.2c0-0.6,0-1.2,0-1.8c0-0.1-0.1-0.2-0.2-0.2
	c-0.1,0-0.2,0.1-0.2,0.2c0,0.6,0,1.2,0,1.8l0,0.2C56.2,35.6,56.3,35.7,56.4,35.7z"/>
<path d="M23.6,40.4C23.6,40.4,23.6,40.4,23.6,40.4c0.2,0,0.2-0.2,0.2-0.3c-0.2-0.6-0.4-1.3-0.5-1.9c0-0.1-0.1-0.2-0.2-0.2
	c-0.1,0-0.2,0.1-0.2,0.2c0.1,0.7,0.3,1.3,0.5,2C23.4,40.3,23.5,40.4,23.6,40.4z"/>
<path d="M22.9,33.4c0.1,0,0.2-0.1,0.2-0.2c0.1-0.7,0.2-1.3,0.4-1.9c0-0.1,0-0.2-0.1-0.2c-0.1,0-0.2,0-0.2,0.1
	c-0.2,0.6-0.3,1.3-0.4,2C22.6,33.3,22.7,33.4,22.9,33.4C22.8,33.4,22.9,33.4,22.9,33.4z"/>
<path d="M54.9,26.5c-0.1,0-0.2,0.2-0.1,0.3c0.2,0.6,0.4,1.2,0.6,1.9c0,0.1,0.1,0.1,0.2,0.1c0,0,0,0,0.1,0c0.1,0,0.2-0.1,0.1-0.2
	c-0.2-0.7-0.4-1.3-0.6-1.9C55.2,26.5,55,26.4,54.9,26.5z"/>
<path d="M30.6,22.4c0,0.1,0.1,0.1,0.2,0.1c0,0,0.1,0,0.1,0c0.6-0.3,1.2-0.6,1.8-0.9c0.1,0,0.1-0.2,0.1-0.3s-0.2-0.1-0.3-0.1
	c-0.6,0.3-1.2,0.6-1.8,0.9C30.6,22.2,30.5,22.3,30.6,22.4z"/>
<path d="M24.8,43.7C24.9,43.7,24.9,43.7,24.8,43.7c0.2-0.1,0.2-0.2,0.2-0.3c-0.3-0.6-0.6-1.2-0.8-1.8c0-0.1-0.2-0.2-0.3-0.1
	c-0.1,0-0.2,0.2-0.1,0.3c0.2,0.6,0.5,1.3,0.8,1.9C24.7,43.6,24.8,43.7,24.8,43.7z"/>
<path d="M54.9,46.1C54.9,46.1,54.9,46.1,54.9,46.1c0.1,0,0.2,0,0.2-0.1c0.2-0.6,0.4-1.3,0.5-2c0-0.1,0-0.2-0.1-0.2
	c-0.1,0-0.2,0-0.2,0.1c-0.2,0.6-0.3,1.3-0.5,1.9C54.7,46,54.8,46.1,54.9,46.1z"/>
<path d="M26.9,25.1c-0.1-0.1-0.2-0.1-0.3,0c-0.5,0.5-0.9,1-1.3,1.5c-0.1,0.1-0.1,0.2,0,0.3c0,0,0.1,0,0.1,0c0.1,0,0.1,0,0.2-0.1
	c0.4-0.5,0.8-1,1.3-1.5C27,25.4,27,25.2,26.9,25.1z"/>
<path d="M39.3,66.1c-0.5,0.4-1.1,0.7-1.7,1.1c-0.1,0.1-0.1,0.2-0.1,0.3c0,0.1,0.1,0.1,0.2,0.1c0,0,0.1,0,0.1,0
	c0.6-0.4,1.1-0.7,1.7-1.1c0.1-0.1,0.1-0.2,0.1-0.3S39.4,66,39.3,66.1z"/>
<path d="M33.6,69.8c-0.1-0.1-0.2-0.1-0.3-0.1c-0.6,0.3-1.2,0.6-1.8,0.9c-0.1,0-0.1,0.2-0.1,0.3c0,0.1,0.1,0.1,0.2,0.1
	c0,0,0.1,0,0.1,0c0.6-0.3,1.2-0.6,1.8-0.9C33.6,70,33.6,69.9,33.6,69.8z"/>
<path d="M18.6,76.3C18.6,76.3,18.7,76.3,18.6,76.3c0.7-0.2,1.3-0.5,2-0.7c0.1,0,0.2-0.2,0.1-0.3c0-0.1-0.2-0.2-0.3-0.1
	c-0.6,0.2-1.3,0.4-1.9,0.7c-0.1,0-0.2,0.2-0.1,0.3C18.5,76.2,18.5,76.3,18.6,76.3z"/>
<path d="M54.5,47.2c-0.1,0-0.2,0-0.3,0.1c-0.2,0.6-0.4,1.3-0.7,1.9c0,0.1,0,0.2,0.1,0.3c0,0,0,0,0.1,0c0.1,0,0.2,0,0.2-0.1
	c0.2-0.6,0.5-1.3,0.7-1.9C54.7,47.3,54.6,47.2,54.5,47.2z"/>
<path d="M42.7,18.8C42.7,18.8,42.7,18.8,42.7,18.8c-0.7,0-1.3,0-2,0.1c-0.1,0-0.2,0.1-0.2,0.2c0,0.1,0.1,0.2,0.2,0.2c0,0,0,0,0,0
	c0.7-0.1,1.3-0.1,2-0.1c0.1,0,0.2-0.1,0.2-0.2C42.9,18.9,42.8,18.8,42.7,18.8z"/>
<path d="M69.9,44.3c-0.5,0.4-1,0.8-1.6,1.3c-0.1,0.1-0.1,0.2,0,0.3c0,0,0.1,0.1,0.2,0.1c0,0,0.1,0,0.1,0c0.5-0.4,1-0.8,1.6-1.3
	c0.1-0.1,0.1-0.2,0-0.3C70.1,44.2,70,44.2,69.9,44.3z"/>
<path d="M75.2,39.6c-0.5,0.5-1,0.9-1.5,1.4c-0.1,0.1-0.1,0.2,0,0.3c0,0,0.1,0.1,0.1,0.1c0,0,0.1,0,0.1-0.1c0.5-0.5,1-0.9,1.5-1.4
	c0.1-0.1,0.1-0.2,0-0.3C75.4,39.6,75.3,39.6,75.2,39.6z"/>
<path d="M39,54.9c0,0.1,0,0.2,0.2,0.2c0.7,0.1,1.3,0.2,2,0.3c0,0,0,0,0,0c0.1,0,0.2-0.1,0.2-0.2c0-0.1-0.1-0.2-0.2-0.2
	c-0.7-0.1-1.3-0.2-2-0.3C39.2,54.7,39,54.8,39,54.9z"/>
<path d="M56.5,53.1C56.5,53.1,56.5,53.1,56.5,53.1c0.3-0.1,0.4-0.2,0.6-0.2c0.4-0.2,0.9-0.4,1.3-0.6c0.1,0,0.1-0.2,0.1-0.3
	s-0.2-0.1-0.3-0.1c-0.4,0.2-0.8,0.4-1.3,0.6c-0.2,0.1-0.4,0.1-0.6,0.2c-0.1,0-0.2,0.2-0.1,0.3C56.3,53.1,56.4,53.1,56.5,53.1z"/>
<path d="M11.9,78.5C12,78.5,12,78.5,11.9,78.5c0.7-0.2,1.3-0.4,2-0.6c0.1,0,0.2-0.1,0.1-0.3c0-0.1-0.1-0.2-0.3-0.1
	c-0.6,0.2-1.3,0.4-1.9,0.6c-0.1,0-0.2,0.1-0.1,0.3C11.8,78.4,11.9,78.5,11.9,78.5z"/>
<path d="M35.7,53.9c0,0.1,0,0.2,0.1,0.3c0.6,0.2,1.3,0.4,1.9,0.6c0,0,0,0,0.1,0c0.1,0,0.2-0.1,0.2-0.1c0-0.1,0-0.2-0.1-0.2
	c-0.6-0.2-1.3-0.4-1.9-0.6C35.8,53.7,35.7,53.8,35.7,53.9z"/>
<path d="M72.9,42c-0.1-0.1-0.2-0.1-0.3,0c-0.5,0.4-1,0.9-1.5,1.3c-0.1,0.1-0.1,0.2,0,0.3c0,0,0.1,0.1,0.2,0.1c0,0,0.1,0,0.1,0
	c0.5-0.4,1-0.9,1.5-1.3C72.9,42.2,72.9,42.1,72.9,42z"/>
<path d="M15.3,77.4C15.3,77.4,15.3,77.4,15.3,77.4c0.7-0.2,1.3-0.4,2-0.6c0.1,0,0.2-0.1,0.1-0.3c0-0.1-0.1-0.2-0.3-0.1
	c-0.6,0.2-1.3,0.4-1.9,0.6c-0.1,0-0.2,0.1-0.1,0.3C15.1,77.3,15.2,77.4,15.3,77.4z"/>
<path d="M64.3,48.5c-0.6,0.4-1.1,0.7-1.7,1.1c-0.1,0.1-0.1,0.2-0.1,0.3c0,0.1,0.1,0.1,0.2,0.1c0,0,0.1,0,0.1,0
	c0.6-0.3,1.1-0.7,1.7-1.1c0.1-0.1,0.1-0.2,0.1-0.3C64.5,48.5,64.4,48.4,64.3,48.5z"/>
<path d="M33.7,20.8c0,0.1,0.1,0.1,0.2,0.1c0,0,0,0,0.1,0c0.6-0.2,1.2-0.5,1.9-0.7c0.1,0,0.2-0.1,0.1-0.3c0-0.1-0.1-0.2-0.3-0.1
	c-0.6,0.2-1.3,0.4-1.9,0.7C33.7,20.6,33.7,20.7,33.7,20.8z"/>
<path d="M32.5,52.3c-0.1,0.1,0,0.2,0.1,0.3c0.6,0.4,1.2,0.7,1.8,1c0,0,0.1,0,0.1,0c0.1,0,0.1,0,0.2-0.1c0-0.1,0-0.2-0.1-0.3
	c-0.6-0.3-1.2-0.6-1.7-0.9C32.7,52.2,32.6,52.2,32.5,52.3z"/>
<path d="M53,50.5c-0.3,0.6-0.6,1.2-0.9,1.8c-0.1,0.1,0,0.2,0.1,0.3c0,0,0.1,0,0.1,0c0.1,0,0.1,0,0.2-0.1c0.3-0.6,0.6-1.2,0.9-1.8
	c0-0.1,0-0.2-0.1-0.3C53.2,50.4,53,50.4,53,50.5z"/>
<path d="M8.6,79.5C8.6,79.5,8.6,79.5,8.6,79.5c0.7-0.2,1.3-0.4,2-0.6c0.1,0,0.2-0.1,0.1-0.3s-0.1-0.2-0.3-0.1
	c-0.6,0.2-1.3,0.4-1.9,0.6c-0.1,0-0.2,0.1-0.1,0.3C8.4,79.5,8.5,79.5,8.6,79.5z"/>
<path d="M52.9,54.1c0,0.1,0.1,0.1,0.2,0.1c0,0,0,0,0.1,0c0.6-0.2,1.3-0.4,1.9-0.6c0.1,0,0.2-0.1,0.1-0.3c0-0.1-0.1-0.2-0.3-0.1
	c-0.6,0.2-1.3,0.4-1.9,0.6C53,53.9,52.9,54,52.9,54.1z"/>
<path d="M67.4,46.5c-0.1-0.1-0.2-0.1-0.3,0c-0.5,0.4-1.1,0.8-1.6,1.2c-0.1,0.1-0.1,0.2,0,0.3c0,0.1,0.1,0.1,0.2,0.1c0,0,0.1,0,0.1,0
	c0.6-0.4,1.1-0.8,1.6-1.2C67.5,46.7,67.5,46.6,67.4,46.5z"/>
<path d="M44,19c0,0.1,0.1,0.2,0.2,0.2c0.7,0,1.3,0.1,2,0.3c0,0,0,0,0,0c0.1,0,0.2-0.1,0.2-0.2c0-0.1-0.1-0.2-0.2-0.2
	c-0.6-0.1-1.3-0.2-2-0.3C44.1,18.8,44,18.9,44,19z"/>
<path d="M5.2,80.5C5.2,80.5,5.3,80.5,5.2,80.5l2-0.6c0.1,0,0.2-0.1,0.1-0.2c0-0.1-0.1-0.2-0.3-0.1l-1.9,0.6c-0.1,0-0.2,0.1-0.1,0.3
	C5.1,80.5,5.1,80.5,5.2,80.5z"/>
<path d="M53.5,23.4c-0.1-0.1-0.2-0.1-0.3,0c-0.1,0.1-0.1,0.2,0,0.3c0.4,0.5,0.7,1.1,1,1.7c0,0.1,0.1,0.1,0.2,0.1c0,0,0.1,0,0.1,0
	c0.1,0,0.1-0.2,0.1-0.3C54.3,24.5,53.9,24,53.5,23.4z"/>
<path d="M56.4,39c0.1-0.7,0.1-1.4,0.2-2c0-0.1-0.1-0.2-0.2-0.2c-0.1,0-0.2,0.1-0.2,0.2c0,0.7-0.1,1.3-0.2,2c0,0.1,0.1,0.2,0.2,0.2
	c0,0,0,0,0,0C56.3,39.2,56.4,39.1,56.4,39z"/>
<path d="M44.8,61.8c-0.5,0.4-1,0.9-1.5,1.3c-0.1,0.1-0.1,0.2,0,0.3c0,0,0.1,0.1,0.2,0.1c0,0,0.1,0,0.1,0c0.5-0.4,1-0.9,1.5-1.3
	c0.1-0.1,0.1-0.2,0-0.3C45,61.7,44.9,61.7,44.8,61.8z"/>
<path d="M34.8,69.3c0.6-0.3,1.2-0.7,1.7-1c0.1-0.1,0.1-0.2,0.1-0.3c-0.1-0.1-0.2-0.1-0.3-0.1c-0.6,0.3-1.2,0.7-1.7,1
	c-0.1,0.1-0.1,0.2-0.1,0.3C34.6,69.3,34.7,69.3,34.8,69.3C34.8,69.3,34.8,69.3,34.8,69.3z"/>
<path d="M22.6,34.7l0,0.2c0,0.6,0,1.2,0.1,1.9c0,0.1,0.1,0.2,0.2,0.2c0,0,0,0,0,0c0.1,0,0.2-0.1,0.2-0.2C23,36.1,23,35.5,23,34.9
	v-0.2c0-0.1-0.1-0.2-0.2-0.2C22.7,34.5,22.6,34.6,22.6,34.7z"/>
<path d="M42.2,64c-0.5,0.4-1.1,0.8-1.6,1.2c-0.1,0.1-0.1,0.2,0,0.3c0,0.1,0.1,0.1,0.2,0.1c0,0,0.1,0,0.1,0c0.5-0.4,1.1-0.8,1.6-1.2
	c0.1-0.1,0.1-0.2,0-0.3C42.4,64,42.3,64,42.2,64z"/>
<path d="M55.9,42.5c0.1-0.7,0.2-1.3,0.3-2c0-0.1-0.1-0.2-0.2-0.2c-0.1,0-0.2,0.1-0.2,0.2c-0.1,0.7-0.2,1.3-0.3,2
	c0,0.1,0.1,0.2,0.2,0.2c0,0,0,0,0,0C55.8,42.7,55.9,42.6,55.9,42.5z"/>
<path d="M48.3,58.1c-0.1,0.1-0.1,0.2,0,0.3c0,0,0.1,0,0.1,0c0.1,0,0.1,0,0.2-0.1c0.4-0.5,0.8-1.1,1.2-1.6c0.1-0.1,0-0.2,0-0.3
	c-0.1-0.1-0.2,0-0.3,0C49.1,57.1,48.7,57.6,48.3,58.1z"/>
<path d="M28.7,49.4c0,0,0.1,0.1,0.1,0.1c0,0,0.1,0,0.1-0.1c0.1-0.1,0.1-0.2,0-0.3c-0.5-0.5-0.9-1-1.3-1.5c-0.1-0.1-0.2-0.1-0.3,0
	s-0.1,0.2,0,0.3C27.8,48.4,28.2,48.9,28.7,49.4z"/>
<path d="M44.7,55.2C44.7,55.2,44.7,55.2,44.7,55.2c-0.7,0-1.3,0-2,0c-0.1,0-0.2,0.1-0.2,0.2c0,0.1,0.1,0.2,0.2,0.2
	c0.5,0,0.9,0,1.4,0c0.2,0,0.4,0,0.6,0c0.1,0,0.2-0.1,0.2-0.2C44.9,55.2,44.8,55.2,44.7,55.2z"/>
<path d="M45.9,61c0,0,0.1,0.1,0.1,0.1s0.1,0,0.1-0.1c0.5-0.5,0.9-1,1.4-1.5c0.1-0.1,0.1-0.2,0-0.3c-0.1-0.1-0.2-0.1-0.3,0
	c-0.4,0.5-0.9,1-1.4,1.4C45.8,60.8,45.8,60.9,45.9,61z"/>
<path d="M28.3,72.3c0,0.1,0.1,0.1,0.2,0.1c0,0,0.1,0,0.1,0c0.6-0.3,1.2-0.6,1.8-0.8c0.1,0,0.1-0.2,0.1-0.3c0-0.1-0.2-0.1-0.3-0.1
	c-0.6,0.3-1.2,0.6-1.8,0.8C28.3,72.1,28.2,72.2,28.3,72.3z"/>
<path d="M25.4,44.6c-0.1,0.1-0.1,0.2-0.1,0.3c0.3,0.6,0.7,1.2,1.1,1.7c0,0.1,0.1,0.1,0.2,0.1c0,0,0.1,0,0.1,0
	c0.1-0.1,0.1-0.2,0.1-0.3c-0.4-0.5-0.7-1.1-1.1-1.7C25.7,44.6,25.5,44.6,25.4,44.6z"/>
<path d="M21.9,75.1C21.9,75.1,22,75.1,21.9,75.1c0.7-0.2,1.3-0.5,1.9-0.7c0.1,0,0.2-0.2,0.1-0.3c0-0.1-0.2-0.2-0.3-0.1
	c-0.6,0.2-1.2,0.5-1.9,0.7c-0.1,0-0.2,0.2-0.1,0.3C21.8,75,21.8,75.1,21.9,75.1z"/>
<path d="M27.7,24.4c0,0,0.1,0.1,0.2,0.1c0,0,0.1,0,0.1,0c0.5-0.4,1-0.8,1.6-1.2c0.1-0.1,0.1-0.2,0.1-0.3c-0.1-0.1-0.2-0.1-0.3-0.1
	c-0.6,0.4-1.1,0.8-1.6,1.2C27.7,24.2,27.6,24.3,27.7,24.4z"/>
<path d="M2.7,81.3C2.7,81.3,2.8,81.3,2.7,81.3l1-0.3c0.1,0,0.2-0.1,0.1-0.2c0-0.1-0.1-0.2-0.2-0.1l-1,0.3c-0.1,0-0.2,0.1-0.1,0.2
	C2.6,81.2,2.6,81.3,2.7,81.3z"/>
</svg>
